<svg xmlns="http://www.w3.org/2000/svg"  fill="none" viewBox="0 0 27 28">
  <path fill-rule="evenodd" d="M0 2.34C0 1.718.238 1.123.66.684A2.216 2.216 0 0 1 2.257 0h22.486a2.2 2.2 0 0 1 1.597.684c.21.217.376.475.49.76.113.283.171.588.171.895v23.32c0 .307-.058.611-.171.896-.113.284-.28.542-.49.76a2.24 2.24 0 0 1-.732.507 2.186 2.186 0 0 1-.864.178H2.256c-.297 0-.59-.06-.864-.178a2.252 2.252 0 0 1-.732-.508 2.347 2.347 0 0 1-.489-.759A2.414 2.414 0 0 1 0 25.66V2.34Zm10.687 8.336h3.656v1.904c.528-1.095 1.878-2.08 3.907-2.08 3.889 0 4.81 2.18 4.81 6.18v7.41h-3.935v-6.498c0-2.278-.528-3.564-1.868-3.564-1.86 0-2.633 1.386-2.633 3.564v6.498h-3.937V10.676Zm-6.75 13.24h3.937V10.5H3.937v13.415Zm4.5-17.792c.008.35-.052.698-.176 1.023-.124.325-.31.621-.545.871a2.53 2.53 0 0 1-.828.584 2.454 2.454 0 0 1-1.964 0 2.53 2.53 0 0 1-.828-.584 2.638 2.638 0 0 1-.545-.871 2.712 2.712 0 0 1-.176-1.023 2.68 2.68 0 0 1 .76-1.819 2.486 2.486 0 0 1 1.771-.748c.662 0 1.298.268 1.77.748.474.48.747 1.133.761 1.82Z" clip-rule="evenodd"/>
</svg>
