<svg xmlns="http://www.w3.org/2000/svg" fill="none" viewBox="0 0 30 30">
  <path fill-rule="evenodd" d="M14.594.81C6.531.81 0 7.322 0 15.36c0 6.437 4.177 11.875 9.979 13.802.73.128 1.003-.309 1.003-.69 0-.346-.018-1.492-.018-2.71-3.667.673-4.616-.891-4.907-1.71-.165-.418-.876-1.709-1.496-2.055-.511-.272-1.241-.945-.019-.963 1.15-.019 1.97 1.054 2.244 1.49 1.314 2.201 3.412 1.583 4.25 1.201.129-.946.512-1.582.931-1.946-3.247-.363-6.64-1.618-6.64-7.183 0-1.582.565-2.891 1.496-3.91-.146-.363-.657-1.855.146-3.855 0 0 1.222-.382 4.013 1.491a13.583 13.583 0 0 1 3.649-.49c1.24 0 2.48.163 3.648.49 2.792-1.891 4.014-1.49 4.014-1.49.803 2 .292 3.49.146 3.854.93 1.019 1.496 2.31 1.496 3.91 0 5.583-3.412 6.82-6.659 7.183.53.455.985 1.328.985 2.692 0 1.945-.018 3.51-.018 4 0 .382.274.837 1.003.691a14.616 14.616 0 0 0 7.199-5.307 14.54 14.54 0 0 0 2.744-8.495c0-8.04-6.531-14.55-14.595-14.55Z" clip-rule="evenodd"/>
</svg>
