<svg xmlns="http://www.w3.org/2000/svg" fill="none" viewBox="0 0 27 28">
  <path fill-rule="evenodd" d="M7.934.084C9.374.015 9.833 0 13.5 0s4.126.017 5.564.084c1.439.067 2.42.305 3.28.65.9.353 1.715.904 2.39 1.617a6.868 6.868 0 0 1 1.557 2.478c.334.89.562 1.909.628 3.398C26.985 9.722 27 10.198 27 14c0 3.803-.016 4.279-.081 5.772-.065 1.489-.294 2.507-.628 3.398a6.898 6.898 0 0 1-1.556 2.48 6.601 6.601 0 0 1-2.391 1.614c-.86.346-1.841.583-3.277.652-1.44.069-1.9.084-5.567.084-3.667 0-4.126-.017-5.566-.084-1.436-.067-2.417-.306-3.277-.652a6.606 6.606 0 0 1-2.391-1.613 6.892 6.892 0 0 1-1.558-2.48c-.332-.89-.56-1.909-.627-3.398C.015 18.278 0 17.802 0 14c0-3.803.016-4.279.081-5.77.065-1.492.295-2.51.627-3.401.34-.934.872-1.78 1.559-2.48A6.6 6.6 0 0 1 4.657.734C5.514.39 6.496.153 7.932.084h.001Zm11.021 2.52c-1.423-.067-1.85-.081-5.455-.081-3.604 0-4.032.014-5.455.081-1.317.062-2.031.29-2.508.482a4.18 4.18 0 0 0-1.552 1.047 4.362 4.362 0 0 0-1.009 1.61c-.185.493-.405 1.234-.465 2.6-.065 1.476-.079 1.919-.079 5.657s.014 4.18.079 5.657c.06 1.366.28 2.107.465 2.6a4.359 4.359 0 0 0 1.009 1.61 4.18 4.18 0 0 0 1.552 1.047c.477.192 1.19.42 2.508.482 1.423.067 1.85.081 5.455.081 3.606 0 4.032-.014 5.455-.081 1.317-.062 2.031-.29 2.508-.482a4.18 4.18 0 0 0 1.552-1.047 4.366 4.366 0 0 0 1.009-1.61c.185-.493.405-1.234.465-2.6.065-1.476.078-1.919.078-5.657s-.013-4.18-.078-5.657c-.06-1.366-.28-2.107-.465-2.6a4.367 4.367 0 0 0-1.009-1.61 4.176 4.176 0 0 0-1.553-1.047c-.476-.192-1.19-.42-2.507-.482Zm-7.18 15.712a4.353 4.353 0 0 0 3.034.159 4.52 4.52 0 0 0 2.441-1.876c.58-.9.84-1.98.737-3.056a4.743 4.743 0 0 0-1.302-2.846 4.487 4.487 0 0 0-1.668-1.094 4.354 4.354 0 0 0-3.832.392 4.58 4.58 0 0 0-1.429 1.411 4.775 4.775 0 0 0-.71 1.91 4.837 4.837 0 0 0 .144 2.04c.194.66.526 1.27.973 1.78.447.513.998.915 1.613 1.18ZM8.594 8.912a6.929 6.929 0 0 1 2.252-1.56 6.725 6.725 0 0 1 5.31 0 6.928 6.928 0 0 1 2.252 1.56 7.218 7.218 0 0 1 1.504 2.334 7.429 7.429 0 0 1 0 5.508 7.218 7.218 0 0 1-1.504 2.334 6.816 6.816 0 0 1-4.907 2.108 6.816 6.816 0 0 1-4.907-2.108A7.334 7.334 0 0 1 6.561 14c0-1.909.731-3.739 2.032-5.088Zm13.385-1.036c.16-.157.287-.344.376-.553a1.755 1.755 0 0 0-.342-1.888 1.638 1.638 0 0 0-.543-.374 1.59 1.59 0 0 0-1.278.02c-.2.091-.382.224-.532.39a1.735 1.735 0 0 0-.448 1.192c.007.442.179.865.48 1.178.303.313.71.492 1.137.498.427.007.84-.16 1.15-.463Z" clip-rule="evenodd"/>
</svg>
